PathFileType	4	(X/Y/Z)	 New Session 103.trc
DataRate	CameraRate	NumFrames	NumMarkers	Units	OrigDataRate	OrigDataStartFrame	OrigNumFrames
100	100	19	14	m	100	156	620
Frame#	Time	C7			T8			IJ			PX			AA			AC			AI			TS			SC			GH			LE			ME			US			RS			
		X1	Y1	Z1	X2	Y2	Z2	X3	Y3	Z3	X4	Y4	Z4	X5	Y5	Z5	X6	Y6	Z6	X7	Y7	Z7	X8	Y8	Z8	X9	Y9	Z9	X10	Y10	Z10	X11	Y11	Z11	X12	Y12	Z12	X13	Y13	Z13	X14	Y14	Z14	
156	1.5600	0.027504	0.098406	0.161812	0.023259	-0.117178	0.227373	-0.001530	-0.000498	-0.003684	-0.006105	-0.141931	-0.074238	0.223319	-0.008140	0.131875	0.173395	0.038429	0.063593	0.108809	0.017796	0.195203	0.105896	-0.100602	0.226497	0.023890	0.006919	0.000589	0.234882	0.004908	0.091279	0.267830	-0.285441	0.013416	0.182040	-0.302771	-0.022547	0.299248	-0.538033	-0.109275	0.366257	-0.501341	-0.119271	
157	1.5700	0.027474	0.098399	0.161825	0.023230	-0.117182	0.227375	-0.001540	-0.000484	-0.003681	-0.006106	-0.141899	-0.074264	0.223294	-0.008145	0.131895	0.173372	0.038435	0.063603	0.108778	0.017785	0.195219	0.105873	-0.100620	0.226506	0.023887	0.006939	0.000588	0.234862	0.004907	0.091297	0.267804	-0.285442	0.013417	0.182055	-0.302781	-0.022541	0.299266	-0.538037	-0.109271	0.366284	-0.501332	-0.119257	
158	1.5800	0.027448	0.098382	0.161836	0.023201	-0.117192	0.227366	-0.001547	-0.000468	-0.003672	-0.006110	-0.141869	-0.074288	0.223265	-0.008162	0.131909	0.173355	0.038435	0.063615	0.108748	0.017768	0.195237	0.105849	-0.100646	0.226512	0.023874	0.006958	0.000592	0.234848	0.004898	0.091308	0.267775	-0.285452	0.013416	0.182072	-0.302792	-0.022477	0.299279	-0.538050	-0.109262	0.366303	-0.501332	-0.119241	
159	1.5900	0.027426	0.098360	0.161846	0.023173	-0.117205	0.227347	-0.001552	-0.000449	-0.003660	-0.006116	-0.141845	-0.074302	0.223238	-0.008188	0.131924	0.173346	0.038431	0.063632	0.108727	0.017744	0.195256	0.105827	-0.100674	0.226516	0.023857	0.006971	0.000603	0.234841	0.004885	0.091319	0.267753	-0.285466	0.013415	0.182085	-0.302797	-0.022385	0.299284	-0.538060	-0.109264	0.366317	-0.501334	-0.119223	
160	1.6000	0.027408	0.098338	0.161857	0.023146	-0.117222	0.227319	-0.001556	-0.000429	-0.003645	-0.006123	-0.141828	-0.074306	0.223219	-0.008212	0.131942	0.173342	0.038427	0.063655	0.108715	0.017720	0.195275	0.105808	-0.100698	0.226522	0.023842	0.006974	0.000620	0.234839	0.004871	0.091334	0.267744	-0.285478	0.013415	0.182085	-0.302792	-0.022283	0.299278	-0.538058	-0.109283	0.366326	-0.501335	-0.119208	
161	1.6100	0.027394	0.098319	0.161870	0.023120	-0.117241	0.227285	-0.001561	-0.000408	-0.003628	-0.006131	-0.141812	-0.074305	0.223207	-0.008222	0.131965	0.173339	0.038427	0.063682	0.108705	0.017701	0.195292	0.105791	-0.100715	0.226525	0.023832	0.006967	0.000641	0.234833	0.004859	0.091351	0.267744	-0.285480	0.013417	0.182068	-0.302777	-0.022187	0.299266	-0.538039	-0.109311	0.366330	-0.501326	-0.119201	
162	1.6200	0.027381	0.098307	0.161887	0.023098	-0.117262	0.227249	-0.001568	-0.000386	-0.003609	-0.006138	-0.141793	-0.074309	0.223204	-0.008212	0.131994	0.173334	0.038433	0.063707	0.108695	0.017694	0.195306	0.105775	-0.100726	0.226527	0.023830	0.006959	0.000661	0.234816	0.004856	0.091369	0.267747	-0.285468	0.013422	0.182037	-0.302753	-0.022117	0.299257	-0.538004	-0.109338	0.366327	-0.501305	-0.119205	
163	1.6300	0.027369	0.098304	0.161911	0.023078	-0.117282	0.227215	-0.001574	-0.000364	-0.003590	-0.006145	-0.141768	-0.074322	0.223203	-0.008190	0.132024	0.173327	0.038446	0.063730	0.108682	0.017698	0.195320	0.105757	-0.100733	0.226527	0.023830	0.006958	0.000680	0.234792	0.004863	0.091390	0.267752	-0.285445	0.013427	0.182003	-0.302724	-0.022085	0.299253	-0.537962	-0.109363	0.366318	-0.501274	-0.119218	
164	1.6400	0.027357	0.098306	0.161940	0.023062	-0.117302	0.227188	-0.001580	-0.000341	-0.003571	-0.006158	-0.141740	-0.074338	0.223199	-0.008169	0.132052	0.173318	0.038459	0.063749	0.108668	0.017706	0.195335	0.105737	-0.100736	0.226532	0.023828	0.006968	0.000696	0.234772	0.004879	0.091414	0.267760	-0.285416	0.013428	0.181977	-0.302698	-0.022085	0.299247	-0.537927	-0.109390	0.366306	-0.501242	-0.119234	
165	1.6500	0.027348	0.098303	0.161968	0.023048	-0.117321	0.227170	-0.001582	-0.000319	-0.003552	-0.006177	-0.141717	-0.074351	0.223193	-0.008160	0.132077	0.173307	0.038466	0.063766	0.108655	0.017708	0.195352	0.105719	-0.100738	0.226546	0.023817	0.006981	0.000714	0.234763	0.004892	0.091442	0.267766	-0.285396	0.013427	0.181966	-0.302682	-0.022104	0.299235	-0.537908	-0.109420	0.366292	-0.501221	-0.119248	
166	1.6600	0.027347	0.098285	0.161990	0.023038	-0.117338	0.227164	-0.001578	-0.000295	-0.003534	-0.006194	-0.141699	-0.074355	0.223191	-0.008167	0.132101	0.173293	0.038461	0.063786	0.108645	0.017697	0.195375	0.105706	-0.100742	0.226572	0.023796	0.006985	0.000741	0.234761	0.004893	0.091474	0.267759	-0.285395	0.013428	0.181972	-0.302680	-0.022133	0.299220	-0.537909	-0.109445	0.366280	-0.501216	-0.119257	
167	1.6700	0.027352	0.098249	0.162003	0.023031	-0.117353	0.227167	-0.001567	-0.000272	-0.003515	-0.006206	-0.141682	-0.074353	0.223195	-0.008187	0.132126	0.173280	0.038446	0.063813	0.108640	0.017672	0.195402	0.105699	-0.100749	0.226606	0.023769	0.006978	0.000781	0.234761	0.004881	0.091509	0.267735	-0.285414	0.013430	0.181990	-0.302690	-0.022166	0.299205	-0.537925	-0.109462	0.366272	-0.501223	-0.119263	
168	1.6800	0.027361	0.098206	0.162014	0.023027	-0.117366	0.227178	-0.001548	-0.000249	-0.003496	-0.006212	-0.141658	-0.074352	0.223197	-0.008212	0.132151	0.173272	0.038432	0.063849	0.108638	0.017640	0.195431	0.105699	-0.100761	0.226638	0.023747	0.006979	0.000826	0.234760	0.004864	0.091546	0.267705	-0.285439	0.013432	0.182016	-0.302702	-0.022197	0.299187	-0.537941	-0.109478	0.366266	-0.501233	-0.119271	
169	1.6900	0.027369	0.098171	0.162031	0.023025	-0.117377	0.227194	-0.001523	-0.000225	-0.003476	-0.006219	-0.141623	-0.074357	0.223192	-0.008233	0.132175	0.173272	0.038432	0.063890	0.108636	0.017611	0.195460	0.105701	-0.100778	0.226659	0.023736	0.007006	0.000864	0.234757	0.004854	0.091583	0.267686	-0.285449	0.013429	0.182045	-0.302701	-0.022220	0.299168	-0.537943	-0.109501	0.366261	-0.501233	-0.119285	
170	1.7000	0.027370	0.098153	0.162058	0.023024	-0.117387	0.227215	-0.001492	-0.000203	-0.003455	-0.006229	-0.141580	-0.074372	0.223181	-0.008245	0.132197	0.173279	0.038447	0.063930	0.108635	0.017592	0.195482	0.105703	-0.100795	0.226666	0.023726	0.007054	0.000893	0.234755	0.004857	0.091614	0.267685	-0.285434	0.013420	0.182073	-0.302680	-0.022233	0.299147	-0.537923	-0.109533	0.366250	-0.501217	-0.119308	
171	1.7100	0.027366	0.098156	0.162096	0.023026	-0.117395	0.227239	-0.001459	-0.000184	-0.003432	-0.006241	-0.141538	-0.074391	0.223171	-0.008245	0.132216	0.173292	0.038471	0.063960	0.108634	0.017585	0.195498	0.105704	-0.100810	0.226664	0.023713	0.007105	0.000914	0.234760	0.004872	0.091634	0.267695	-0.285401	0.013406	0.182091	-0.302641	-0.022244	0.299129	-0.537887	-0.109579	0.366236	-0.501186	-0.119339	
172	1.7200	0.027361	0.098173	0.162141	0.023028	-0.117401	0.227268	-0.001425	-0.000167	-0.003408	-0.006252	-0.141506	-0.074407	0.223169	-0.008234	0.132231	0.173304	0.038490	0.063976	0.108634	0.017582	0.195508	0.105703	-0.100820	0.226664	0.023706	0.007141	0.000931	0.234776	0.004891	0.091640	0.267701	-0.285370	0.013397	0.182100	-0.302594	-0.022255	0.299116	-0.537841	-0.109644	0.366219	-0.501148	-0.119377	
173	1.7300	0.027360	0.098195	0.162187	0.023032	-0.117405	0.227302	-0.001393	-0.000156	-0.003383	-0.006261	-0.141488	-0.074412	0.223179	-0.008222	0.132242	0.173313	0.038494	0.063981	0.108635	0.017577	0.195515	0.105704	-0.100824	0.226674	0.023704	0.007140	0.000954	0.234799	0.004906	0.091640	0.267692	-0.285358	0.013402	0.182106	-0.302549	-0.022261	0.299102	-0.537793	-0.109730	0.366203	-0.501115	-0.119421	
174	1.7400	0.027368	0.098216	0.162234	0.023036	-0.117409	0.227338	-0.001365	-0.000147	-0.003358	-0.006273	-0.141482	-0.074400	0.223195	-0.008216	0.132253	0.173318	0.038481	0.063980	0.108641	0.017566	0.195525	0.105707	-0.100826	0.226696	0.023700	0.007107	0.000986	0.234821	0.004914	0.091642	0.267670	-0.285373	0.013424	0.182117	-0.302510	-0.022249	0.299078	-0.537748	-0.109836	0.366188	-0.501091	-0.119466	
